<?xml version="1.0" standalone="no"?>
<!DOCTYPE svg PUBLIC "-//W3C//DTD SVG 20010904//EN"
 "http://www.w3.org/TR/2001/REC-SVG-20010904/DTD/svg10.dtd">
<svg version="1.0" xmlns="http://www.w3.org/2000/svg"
 width="225.000000pt" height="225.000000pt" viewBox="0 0 225.000000 225.000000"
 preserveAspectRatio="xMidYMid meet">
<metadata>
Created by potrace 1.15, written by Peter Selinger 2001-2017
</metadata>
<g transform="translate(0.000000,225.000000) scale(0.100000,-0.100000)"
fill="#7E7E7E" stroke="none">
<path d="M995 2241 c-422 -6 -431 -8 -467 -63 -39 -60 -39 -69 -40 -1040 -1
-519 2 -959 6 -978 13 -57 44 -97 92 -121 43 -20 64 -22 342 -28 611 -12 711
-6 773 47 65 54 62 -2 60 1076 -3 1069 1 1007 -61 1059 -64 54 -108 57 -705
48z m626 -47 c39 -23 65 -59 74 -101 l7 -33 -571 0 -571 0 0 25 c0 62 36 108
97 124 12 3 227 5 477 5 424 -2 458 -3 487 -20z m79 -964 l0 -800 -570 0 -570
0 0 800 0 800 570 0 570 0 0 -800z m0 -902 c-1 -122 -15 -216 -37 -240 -45
-50 -44 -50 -535 -50 -522 1 -503 -2 -546 83 -25 51 -40 187 -28 253 l7 36
569 0 570 0 0 -82z"/>
<path d="M1069 1773 c-2 -65 -12 -87 -46 -96 -28 -8 -37 -5 -76 27 l-43 35
-39 -39 -38 -39 36 -44 36 -44 -16 -36 c-16 -34 -20 -36 -67 -39 l-51 -3 -3
-57 -3 -58 43 0 c52 0 67 -9 83 -47 11 -26 9 -32 -23 -71 l-35 -44 38 -38 38
-39 26 20 c67 51 69 52 101 39 26 -11 30 -18 36 -71 l7 -59 52 0 c60 0 65 6
65 75 0 41 2 44 35 55 34 11 38 10 81 -25 l46 -38 39 38 38 39 -35 43 c-34 41
-35 45 -23 77 13 37 31 46 92 46 l37 0 0 54 c0 60 -6 66 -71 66 -36 0 -41 3
-55 36 -16 39 -17 38 35 105 l20 26 -37 37 -38 36 -47 -36 c-42 -33 -51 -36
-80 -28 -28 9 -32 14 -35 49 -5 83 -7 85 -67 85 l-55 0 -1 -37z m137 -257 c28
-28 34 -42 34 -76 0 -34 -6 -48 -34 -76 -29 -29 -41 -34 -79 -34 -54 0 -91 26
-107 75 -25 75 28 144 109 145 36 0 49 -6 77 -34z"/>
<path d="M740 865 c11 -13 68 -15 404 -15 346 1 389 2 372 15 -17 13 -82 15
-404 15 -341 0 -383 -2 -372 -15z"/>
<path d="M730 691 c0 -6 15 -13 33 -16 56 -10 762 -1 762 10 0 6 -141 11 -397
13 -251 1 -398 -1 -398 -7z"/>
<path d="M1039 291 c-70 -71 2 -173 112 -158 141 19 104 187 -41 187 -33 0
-48 -6 -71 -29z"/>
</g>
</svg>
